<svg xmlns="http://www.w3.org/2000/svg" xmlns:xlink="http://www.w3.org/1999/xlink" width="0" height="0" style="display:none;"><symbol viewBox="0 0 24 24" id="iconfont-bus">
<path d="M3 6C1.89 6 1 6.89 1 8V15H3C3 15.7956 3.31607 16.5587 3.87868 17.1213C4.44129 17.6839 5.20435 18 6 18C6.79565 18 7.55871 17.6839 8.12132 17.1213C8.68393 16.5587 9 15.7956 9 15H15C15 15.7956 15.3161 16.5587 15.8787 17.1213C16.4413 17.6839 17.2044 18 18 18C18.7956 18 19.5587 17.6839 20.1213 17.1213C20.6839 16.5587 21 15.7956 21 15H23V8C23 6.89 22.11 6 21 6H3ZM2.5 7.5H6.5V10H2.5V7.5ZM8 7.5H12V10H8V7.5ZM13.5 7.5H17.5V10H13.5V7.5ZM19 7.5H21.5V13L19 11V7.5ZM6 13.5C6.39782 13.5 6.77936 13.658 7.06066 13.9393C7.34196 14.2206 7.5 14.6022 7.5 15C7.5 15.3978 7.34196 15.7794 7.06066 16.0607C6.77936 16.342 6.39782 16.5 6 16.5C5.60218 16.5 5.22064 16.342 4.93934 16.0607C4.65804 15.7794 4.5 15.3978 4.5 15C4.5 14.6022 4.65804 14.2206 4.93934 13.9393C5.22064 13.658 5.60218 13.5 6 13.5ZM18 13.5C18.3978 13.5 18.7794 13.658 19.0607 13.9393C19.342 14.2206 19.5 14.6022 19.5 15C19.5 15.3978 19.342 15.7794 19.0607 16.0607C18.7794 16.342 18.3978 16.5 18 16.5C17.6022 16.5 17.2206 16.342 16.9393 16.0607C16.658 15.7794 16.5 15.3978 16.5 15C16.5 14.6022 16.658 14.2206 16.9393 13.9393C17.2206 13.658 17.6022 13.5 18 13.5Z" fill="#575C66"></path>
</symbol><symbol viewBox="0 0 24 24" id="iconfont-cargo">
<path d="M20 8H15V14H2V17H3C3 17.7956 3.31607 18.5587 3.87868 19.1213C4.44129 19.6839 5.20435 20 6 20C6.79565 20 7.55871 19.6839 8.12132 19.1213C8.68393 18.5587 9 17.7956 9 17H15C15 17.7956 15.3161 18.5587 15.8787 19.1213C16.4413 19.6839 17.2044 20 18 20C18.7956 20 19.5587 19.6839 20.1213 19.1213C20.6839 18.5587 21 17.7956 21 17H23V12L20 8ZM6 18.5C5.60218 18.5 5.22064 18.342 4.93934 18.0607C4.65804 17.7794 4.5 17.3978 4.5 17C4.5 16.6022 4.65804 16.2206 4.93934 15.9393C5.22064 15.658 5.60218 15.5 6 15.5C6.39782 15.5 6.77936 15.658 7.06066 15.9393C7.34196 16.2206 7.5 16.6022 7.5 17C7.5 17.3978 7.34196 17.7794 7.06066 18.0607C6.77936 18.342 6.39782 18.5 6 18.5ZM18 18.5C17.6022 18.5 17.2206 18.342 16.9393 18.0607C16.658 17.7794 16.5 17.3978 16.5 17C16.5 16.6022 16.658 16.2206 16.9393 15.9393C17.2206 15.658 17.6022 15.5 18 15.5C18.3978 15.5 18.7794 15.658 19.0607 15.9393C19.342 16.2206 19.5 16.6022 19.5 17C19.5 17.3978 19.342 17.7794 19.0607 18.0607C18.7794 18.342 18.3978 18.5 18 18.5ZM17 12V9.5H19.5L21.46 12H17ZM18 7H14V13H3L1.57 8H1V6H13L14 5H18V7Z" fill="#575C66"></path>
</symbol><symbol viewBox="0 0 24 24" id="iconfont-cart">
<path d="M6.14995 15.36L3.21302 3.86032H2.70141e-07V2.05273H4.61695L5.30931 4.76359L24 4.75022L22.0129 15.3599H6.14995V15.36ZM5.77084 6.57086L7.55389 13.5524H20.5124L21.8222 6.55937L5.77084 6.57086Z" fill="black"></path>
<path d="M8.62436 21.9474C7.03046 21.9474 5.73373 20.6506 5.73373 19.0567C5.73373 17.4628 7.03046 16.1661 8.62436 16.1661H19.5151C21.109 16.1661 22.4058 17.4628 22.4058 19.0567C22.4058 20.6506 21.109 21.9474 19.5151 21.9474C17.9212 21.9474 16.6245 20.6506 16.6245 19.0567C16.6245 18.674 16.6995 18.3084 16.8352 17.9737H11.3043C11.44 18.3084 11.515 18.674 11.515 19.0567C11.515 20.6506 10.2183 21.9474 8.62436 21.9474ZM18.4321 19.0567C18.4321 19.654 18.9179 20.1398 19.5151 20.1398C20.1123 20.1398 20.5982 19.654 20.5982 19.0567C20.5982 18.4596 20.1123 17.9737 19.5151 17.9737C18.9179 17.9737 18.4321 18.4596 18.4321 19.0567ZM7.54129 19.0567C7.54129 19.654 8.02713 20.1398 8.62433 20.1398C9.22153 20.1398 9.70737 19.654 9.70737 19.0567C9.70737 18.4596 9.22153 17.9737 8.62433 17.9737C8.02713 17.9737 7.54129 18.4596 7.54129 19.0567Z" fill="black"></path>
</symbol><symbol viewBox="0 0 24 24" id="iconfont-chevron-down">
<path d="M10.9407 19.0594C11.5267 19.6453 12.4782 19.6453 13.0642 19.0594L22.0642 10.0594C22.6501 9.47341 22.6501 8.52185 22.0642 7.93591C21.4782 7.34998 20.5267 7.34998 19.9407 7.93591L12.0001 15.8765L4.05947 7.9406C3.47354 7.35466 2.52197 7.35466 1.93604 7.9406C1.3501 8.52654 1.3501 9.4781 1.93604 10.064L10.936 19.064L10.9407 19.0594Z" fill="black"></path>
</symbol><symbol viewBox="0 0 24 24" id="iconfont-close">
<path d="M21.6137 3.57881C22.2022 2.91101 22.1084 1.91913 21.4001 1.36426C20.6919 0.809396 19.6399 0.897782 19.0514 1.56558L12 9.54484L4.94859 1.56558C4.3601 0.897782 3.30812 0.809396 2.59985 1.36426C1.89159 1.91913 1.79785 2.91101 2.38633 3.57881L9.82833 12L2.38633 20.4212C1.79785 21.089 1.89159 22.0809 2.59985 22.6357C3.30812 23.1906 4.3601 23.1022 4.94859 22.4344L12 14.4552L19.0514 22.4344C19.6399 23.1022 20.6919 23.1906 21.4001 22.6357C22.1084 22.0809 22.2022 21.089 21.6137 20.4212L14.1717 12L21.6137 3.57881Z" fill="black"></path>
</symbol><symbol viewBox="0 0 24 24" id="iconfont-email">
<path d="M21.75 20.5H2.25C1.005 20.5 0 19.495 0 18.25V4.75C0 3.505 1.005 2.5 2.25 2.5H21.75C22.995 2.5 24 3.505 24 4.75V18.25C24 19.495 22.995 20.5 21.75 20.5ZM2.25 4C1.83 4 1.5 4.33 1.5 4.75V18.25C1.5 18.67 1.83 19 2.25 19H21.75C22.17 19 22.5 18.67 22.5 18.25V4.75C22.5 4.33 22.17 4 21.75 4H2.25Z" fill="#6B6B6B"></path>
<path d="M12.0001 14.4399C10.9501 14.4399 9.99013 14.0199 9.27013 13.2549L1.39513 4.88493C1.11013 4.58493 1.12513 4.10493 1.42513 3.81993C1.72513 3.53493 2.20513 3.54993 2.49013 3.84993L10.3651 12.2199C11.2201 13.1349 12.7801 13.1349 13.6351 12.2199L21.5101 3.86493C21.7951 3.56493 22.2751 3.54993 22.5751 3.83493C22.8751 4.11993 22.8901 4.59993 22.6051 4.89993L14.7301 13.2699C14.0101 14.0349 13.0501 14.4549 12.0001 14.4549V14.4399Z" fill="#6B6B6B"></path>
</symbol><symbol viewBox="0 0 24 24" id="iconfont-facebook">
<path d="M7.3939 14.0297V24H13.3589V14.0297H17.807L18.7326 9.44531H13.3589V7.82344C13.3589 5.4 14.4028 4.47188 17.0974 4.47188C17.9356 4.47188 18.6092 4.49062 19 4.52812V0.370313C18.2647 0.1875 16.4649 0 15.4261 0C9.92904 0 7.3939 2.36719 7.3939 7.47187V9.44531H4V14.0297H7.3939Z" fill="black"></path>
</symbol><symbol viewBox="0 0 24 24" id="iconfont-heart-o">
<path d="M10.5844 21.9469L10.4672 21.8391L2.25469 14.2126C0.815625 12.8766 0 11.0016 0 9.03756V8.88287C0 5.58287 2.34375 2.75162 5.5875 2.13287C7.43437 1.77662 9.32344 2.20318 10.8281 3.26256C11.25 3.56256 11.6438 3.90943 12 4.30787C12.1969 4.08287 12.4078 3.87662 12.6328 3.68443C12.8063 3.53443 12.9844 3.39381 13.1719 3.26256C14.6766 2.20318 16.5656 1.77662 18.4125 2.12818C21.6562 2.74693 24 5.58287 24 8.88287V9.03756C24 11.0016 23.1844 12.8766 21.7453 14.2126L13.5328 21.8391L13.4156 21.9469C13.0313 22.3032 12.525 22.5047 12 22.5047C11.475 22.5047 10.9688 22.3079 10.5844 21.9469ZM11.2078 6.79693C11.1891 6.78287 11.175 6.76412 11.1609 6.74537L10.3266 5.80787L10.3219 5.80318C9.23906 4.58912 7.60312 4.036 6.00937 4.34068C3.825 4.75787 2.25 6.661 2.25 8.88287V9.03756C2.25 10.3735 2.80781 11.6532 3.7875 12.5626L12 20.1891L20.2125 12.5626C21.1922 11.6532 21.75 10.3735 21.75 9.03756V8.88287C21.75 6.66568 20.175 4.75787 17.9953 4.34068C16.4016 4.036 14.7609 4.59381 13.6828 5.80318C13.6828 5.80318 13.6828 5.80318 13.6781 5.80787C13.6734 5.81256 13.6781 5.80787 13.6734 5.81256L12.8391 6.75006C12.825 6.76881 12.8062 6.78287 12.7922 6.80162C12.5812 7.01256 12.2953 7.12975 12 7.12975C11.7047 7.12975 11.4188 7.01256 11.2078 6.80162V6.79693Z" fill="black"></path>
</symbol><symbol viewBox="0 0 24 24" id="iconfont-heart">
<path d="M2.23125 14.0813L10.7016 21.9891C11.0531 22.3172 11.5172 22.5 12 22.5C12.4828 22.5 12.9469 22.3172 13.2984 21.9891L21.7687 14.0813C23.1937 12.7547 24 10.8938 24 8.94844V8.67657C24 5.40001 21.6328 2.60626 18.4031 2.06719C16.2656 1.71094 14.0906 2.40938 12.5625 3.93751L12 4.50001L11.4375 3.93751C9.90938 2.40938 7.73438 1.71094 5.59688 2.06719C2.36719 2.60626 0 5.40001 0 8.67657V8.94844C0 10.8938 0.80625 12.7547 2.23125 14.0813Z" fill="black"></path>
</symbol><symbol viewBox="0 0 24 23" id="iconfont-home">
<path fill-rule="evenodd" clip-rule="evenodd" d="M12.6344 0.5L24 10.8407L22.7312 12.1066L20.9263 10.4735V22.1086L20.0328 23H14.6716L13.7781 22.1086V15.8685H10.204V22.1086L9.3105 23H3.94937L3.05585 22.1086V10.4877L1.2688 12.1066L0 10.8407L11.3477 0.5H12.6344ZM4.84289 8.86708V21.2171H8.41698V14.977L9.3105 14.0856H14.6716L15.5652 14.977V21.2171H19.1392V8.85638L11.9911 2.38986L4.84289 8.86708Z" fill="#6B6B6B"></path>
</symbol><symbol viewBox="0 0 24 24" id="iconfont-info">
<path d="M12 24C15.1826 24 18.2348 22.7357 20.4853 20.4853C22.7357 18.2348 24 15.1826 24 12C24 8.8174 22.7357 5.76516 20.4853 3.51472C18.2348 1.26428 15.1826 0 12 0C8.8174 0 5.76516 1.26428 3.51472 3.51472C1.26428 5.76516 0 8.8174 0 12C0 15.1826 1.26428 18.2348 3.51472 20.4853C5.76516 22.7357 8.8174 24 12 24ZM10.125 15.75H11.25V12.75H10.125C9.50156 12.75 9 12.2484 9 11.625C9 11.0016 9.50156 10.5 10.125 10.5H12.375C12.9984 10.5 13.5 11.0016 13.5 11.625V15.75H13.875C14.4984 15.75 15 16.2516 15 16.875C15 17.4984 14.4984 18 13.875 18H10.125C9.50156 18 9 17.4984 9 16.875C9 16.2516 9.50156 15.75 10.125 15.75ZM12 6C12.3978 6 12.7794 6.15804 13.0607 6.43934C13.342 6.72064 13.5 7.10218 13.5 7.5C13.5 7.89782 13.342 8.27936 13.0607 8.56066C12.7794 8.84196 12.3978 9 12 9C11.6022 9 11.2206 8.84196 10.9393 8.56066C10.658 8.27936 10.5 7.89782 10.5 7.5C10.5 7.10218 10.658 6.72064 10.9393 6.43934C11.2206 6.15804 11.6022 6 12 6Z" fill="black"></path>
</symbol><symbol viewBox="0 0 24 24" id="iconfont-instagram">
<path d="M12.0025 6.35948C8.88098 6.35948 6.36319 8.87783 6.36319 12C6.36319 15.1222 8.88098 17.6405 12.0025 17.6405C15.1239 17.6405 17.6417 15.1222 17.6417 12C17.6417 8.87783 15.1239 6.35948 12.0025 6.35948ZM12.0025 15.6671C9.98528 15.6671 8.3362 14.0225 8.3362 12C8.3362 9.97746 9.98037 8.33292 12.0025 8.33292C14.0245 8.33292 15.6687 9.97746 15.6687 12C15.6687 14.0225 14.0196 15.6671 12.0025 15.6671ZM19.1877 6.12875C19.1877 6.8602 18.5988 7.44438 17.8724 7.44438C17.1411 7.44438 16.5571 6.85529 16.5571 6.12875C16.5571 5.40221 17.146 4.81312 17.8724 4.81312C18.5988 4.81312 19.1877 5.40221 19.1877 6.12875ZM22.9227 7.46402C22.8393 5.70166 22.4368 4.14058 21.146 2.8544C19.8601 1.56822 18.2994 1.16568 16.5374 1.07732C14.7215 0.974227 9.27853 0.974227 7.46258 1.07732C5.70552 1.16077 4.14479 1.56332 2.85399 2.84949C1.56319 4.13567 1.16564 5.69675 1.0773 7.45911C0.974233 9.27547 0.974233 14.7196 1.0773 16.536C1.16074 18.2983 1.56319 19.8594 2.85399 21.1456C4.14479 22.4318 5.70061 22.8343 7.46258 22.9227C9.27853 23.0258 14.7215 23.0258 16.5374 22.9227C18.2994 22.8392 19.8601 22.4367 21.146 21.1456C22.4319 19.8594 22.8344 18.2983 22.9227 16.536C23.0258 14.7196 23.0258 9.28037 22.9227 7.46402ZM20.5767 18.4849C20.1939 19.4471 19.4528 20.1883 18.4859 20.5761C17.038 21.1505 13.6025 21.018 12.0025 21.018C10.4025 21.018 6.96196 21.1456 5.51902 20.5761C4.55705 20.1932 3.81595 19.452 3.42822 18.4849C2.85399 17.0367 2.9865 13.6004 2.9865 12C2.9865 10.3996 2.8589 6.95838 3.42822 5.51512C3.81104 4.55294 4.55215 3.81167 5.51902 3.42385C6.96687 2.84949 10.4025 2.98204 12.0025 2.98204C13.6025 2.98204 17.0429 2.8544 18.4859 3.42385C19.4479 3.80676 20.189 4.54803 20.5767 5.51512C21.1509 6.96329 21.0184 10.3996 21.0184 12C21.0184 13.6004 21.1509 17.0416 20.5767 18.4849Z" fill="black"></path>
</symbol><symbol viewBox="0 0 24 24" id="iconfont-light">
<path d="M19.0299 16.8668C18.9166 16.8667 18.8044 16.8445 18.6997 16.8016C18.5951 16.7587 18.5 16.6959 18.42 16.6168C18.3399 16.5377 18.2765 16.4438 18.2332 16.3405C18.19 16.2371 18.1678 16.1264 18.1679 16.0147C18.168 15.9029 18.1905 15.7922 18.234 15.689C18.2775 15.5858 18.3412 15.4921 18.4214 15.4131C18.5016 15.3342 18.5968 15.2716 18.7016 15.2289C18.8063 15.1863 18.9186 15.1644 19.0319 15.1645C19.2608 15.1648 19.4802 15.2547 19.6418 15.4145C19.8035 15.5743 19.8942 15.7909 19.8939 16.0166C19.8936 16.2424 19.8025 16.4588 19.6404 16.6182C19.4784 16.7776 19.2588 16.867 19.0299 16.8668ZM19.0299 14.0264C18.7654 14.0266 18.5034 14.0782 18.2591 14.1782C18.0148 14.2782 17.7928 14.4247 17.6059 14.6093C17.419 14.794 17.2707 15.0131 17.1697 15.2542C17.0686 15.4954 17.0167 15.7538 17.0169 16.0147C17.0171 16.2756 17.0694 16.5339 17.1708 16.7749C17.2722 17.0158 17.4208 17.2348 17.608 17.4191C17.7952 17.6035 18.0174 17.7497 18.2619 17.8493C18.5064 17.949 18.7684 18.0002 19.0329 18C19.5672 17.9995 20.0794 17.7896 20.4568 17.4167C20.8342 17.0437 21.0459 16.5381 21.0454 16.0112C21.0449 15.4843 20.8321 14.9791 20.454 14.6069C20.0758 14.2347 19.5632 14.0259 19.0289 14.0264H19.0299ZM4.89291 16.8668C4.67121 16.8563 4.46213 16.762 4.309 16.6035C4.15588 16.4451 4.07046 16.2346 4.07046 16.0157C4.07046 15.7967 4.15588 15.5862 4.309 15.4278C4.46213 15.2693 4.67121 15.175 4.89291 15.1645C5.12179 15.1645 5.3413 15.2542 5.50314 15.4138C5.66498 15.5734 5.75591 15.7899 5.75591 16.0157C5.75591 16.2414 5.66498 16.4579 5.50314 16.6175C5.3413 16.7771 5.12179 16.8668 4.89291 16.8668ZM4.89291 14.0264C4.49458 14.0264 4.10519 14.1429 3.77399 14.3611C3.44279 14.5794 3.18465 14.8896 3.03221 15.2526C2.87978 15.6155 2.83989 16.0149 2.91761 16.4002C2.99532 16.7855 3.18713 17.1394 3.46879 17.4172C3.75046 17.695 4.10932 17.8842 4.5 17.9608C4.89067 18.0375 5.29562 17.9981 5.66363 17.8478C6.03164 17.6975 6.34619 17.4429 6.56749 17.1162C6.78879 16.7896 6.90691 16.4055 6.90691 16.0127V16.0117C6.90691 15.4849 6.69472 14.9797 6.31702 14.6072C5.93932 14.2347 5.42705 14.0254 4.89291 14.0254H4.89091L4.89291 14.0264Z" fill="#575C66"></path>
<path d="M11.5063 11.2842L11.3633 8.68052H13.5653L16.5883 11.2842H11.5063ZM10.6523 11.2842H7.19028L8.39728 8.68052H10.6513L10.6523 11.2842ZM5.95728 11.2842H4.89328L6.90728 8.68052H7.54728L5.95728 11.2842ZM23.4173 13.4145L23.2373 12.8445C23.1448 12.555 22.9736 12.2961 22.7422 12.0959C22.5109 11.8958 22.2283 11.762 21.9253 11.7093L21.9153 11.7083L17.6533 11.0081L14.5453 8.39845C14.24 8.14069 13.8512 7.99934 13.4493 8H7.20528C6.62028 8 6.10228 8.28404 5.78528 8.71898L5.78128 8.72391L3.92728 11.2951L1.97328 11.4923C1.71024 11.5197 1.46221 11.6266 1.26315 11.7984C1.06409 11.9702 0.923726 12.1985 0.861278 12.452L0.859278 12.4608L0.567278 13.7025H0.564278C0.475615 13.7023 0.388185 13.723 0.309232 13.7628C0.23028 13.8026 0.162078 13.8604 0.110279 13.9313L0.109279 13.9333C0.055541 14.0048 0.0202667 14.0882 0.0065027 14.1762C-0.00726126 14.2641 0.000898994 14.3541 0.0302786 14.4383L0.0292786 14.4343L0.209279 14.9659C0.31303 15.2706 0.511049 15.5355 0.775465 15.7234C1.03988 15.9113 1.35738 16.0127 1.68328 16.0133H2.23728C2.23043 15.6651 2.29405 15.319 2.42442 14.9954C2.5548 14.6717 2.74931 14.3769 2.99657 14.1283C3.24383 13.8796 3.53889 13.6821 3.86448 13.5473C4.19007 13.4125 4.53965 13.343 4.89278 13.343C5.24591 13.343 5.59549 13.4125 5.92108 13.5473C6.24666 13.6821 6.54172 13.8796 6.78899 14.1283C7.03625 14.3769 7.23076 14.6717 7.36113 14.9954C7.49151 15.319 7.55513 15.6651 7.54828 16.0133H16.3743C16.3743 15.3186 16.6541 14.6523 17.1522 14.1611C17.6503 13.6698 18.3259 13.3938 19.0303 13.3938H19.0313C19.7357 13.3938 20.4113 13.6698 20.9094 14.1611C21.4074 14.6523 21.6873 15.3186 21.6873 16.0133H22.1453C22.9143 16.0133 23.5643 15.5113 23.7763 14.8209L23.7793 14.8091L23.9773 14.1523C24.0028 14.0663 24.0077 13.9756 23.9916 13.8875C23.9754 13.7993 23.9387 13.7161 23.8843 13.6443L23.8853 13.6453C23.8308 13.5739 23.7603 13.5158 23.6793 13.4758C23.5983 13.4357 23.5089 13.4148 23.4183 13.4145H23.4173Z" fill="#575C66"></path>
</symbol><symbol viewBox="0 0 24 24" id="iconfont-marker">
<path d="M11.9997 4.4812C11.2442 4.4812 10.5056 4.70524 9.87741 5.12499C9.24922 5.54473 8.7596 6.14134 8.47047 6.83935C8.18134 7.53736 8.10569 8.30544 8.25309 9.04645C8.40049 9.78745 8.7643 10.4681 9.29854 11.0023C9.83278 11.5366 10.5134 11.9004 11.2544 12.0478C11.9955 12.1952 12.7635 12.1195 13.4615 11.8304C14.1596 11.5413 14.7562 11.0517 15.1759 10.4235C15.5956 9.79528 15.8197 9.05673 15.8197 8.3012C15.8197 7.28807 15.4172 6.31644 14.7008 5.60005C13.9844 4.88366 13.0128 4.4812 11.9997 4.4812V4.4812ZM11.9997 10.7879C11.5079 10.7879 11.0271 10.642 10.6182 10.3688C10.2092 10.0956 9.89052 9.70719 9.70231 9.25281C9.5141 8.79843 9.46485 8.29844 9.5608 7.81608C9.65675 7.33371 9.89358 6.89063 10.2414 6.54286C10.5891 6.1951 11.0322 5.95826 11.5146 5.86232C11.9969 5.76637 12.4969 5.81561 12.9513 6.00382C13.4057 6.19203 13.794 6.51075 14.0673 6.91968C14.3405 7.32861 14.4864 7.80938 14.4864 8.3012C14.4846 8.95955 14.2218 9.59033 13.7557 10.0552C13.2895 10.5201 12.658 10.7812 11.9997 10.7812V10.7879Z" fill="#6B6B6B"></path>
<path d="M11.9965 7.29447e-10C9.77639 0.00191703 7.6472 0.912019 6.07399 2.53153C4.50078 4.15104 3.6114 6.34835 3.6001 8.64354C3.6001 12.0847 5.46756 14.9659 6.83608 17.066L7.08554 17.4492C8.44714 19.4893 9.90781 21.4568 11.462 23.3442L12.0037 24L12.5454 23.3442C14.0993 21.4567 15.56 19.4892 16.9218 17.4492L17.1712 17.0586C18.5326 14.9586 20.4001 12.0847 20.4001 8.64354C20.3888 6.34707 19.4984 4.14865 17.9237 2.52893C16.3489 0.909213 14.2179 -2.97374e-05 11.9965 7.29447e-10V7.29447e-10ZM15.9809 16.2112L15.7243 16.6018C14.4984 18.5029 12.8732 20.6325 11.9965 21.6862C11.1555 20.6325 9.49471 18.5029 8.26874 16.6018L8.01927 16.2112C6.75767 14.2659 5.02564 11.6058 5.02564 8.61406C5.02564 7.66767 5.20595 6.73055 5.55627 5.8562C5.90659 4.98185 6.42006 4.1874 7.06737 3.5182C7.71467 2.84901 8.48314 2.31817 9.32889 1.956C10.1746 1.59384 11.0811 1.40743 11.9965 1.40743C12.912 1.40743 13.8184 1.59384 14.6642 1.956C15.5099 2.31817 16.2784 2.84901 16.9257 3.5182C17.573 4.1874 18.0865 4.98185 18.4368 5.8562C18.7871 6.73055 18.9674 7.66767 18.9674 8.61406C18.9674 11.6352 17.2425 14.2954 15.9809 16.2112V16.2112Z" fill="#6B6B6B"></path>
</symbol><symbol viewBox="0 0 24 24" id="iconfont-menu">
<path d="M0 4.5C0 3.67031 0.766071 3 1.71429 3H22.2857C23.2339 3 24 3.67031 24 4.5C24 5.32969 23.2339 6 22.2857 6H1.71429C0.766071 6 0 5.32969 0 4.5ZM0 12C0 11.1703 0.766071 10.5 1.71429 10.5H22.2857C23.2339 10.5 24 11.1703 24 12C24 12.8297 23.2339 13.5 22.2857 13.5H1.71429C0.766071 13.5 0 12.8297 0 12ZM24 19.5C24 20.3297 23.2339 21 22.2857 21H1.71429C0.766071 21 0 20.3297 0 19.5C0 18.6703 0.766071 18 1.71429 18H22.2857C23.2339 18 24 18.6703 24 19.5Z" fill="black"></path>
</symbol><symbol viewBox="0 0 24 24" id="iconfont-motorcycle">
<path d="M12.7734 5C13.2788 5 13.7428 5.26953 13.98 5.70246L14.4647 6.57132L16.0941 5.24844C16.2934 5.08772 16.5409 5 16.7988 5H17.5C18.1084 5 18.6 5.4798 18.6 6.07143V7.14286C18.6 7.73549 18.1084 8.21429 17.5 8.21429H15.3756L17.2697 11.5993C17.6891 11.4989 18.1359 11.4286 18.6 11.4286C21.0303 11.4286 23 13.3471 23 15.7143C23 18.0815 21.0303 20 18.6 20C16.1697 20 14.2 18.0815 14.2 15.7143C14.2 14.3449 14.8325 13.1797 15.8191 12.3929L15.2897 11.4353C13.9284 12.4129 13.1 13.9665 13.1 15.7143C13.1 16.0525 13.1378 16.4408 13.21 16.7857H10.79C10.8622 16.4408 10.8691 16.0525 10.8691 15.7143C10.8691 12.7545 8.43875 10.3571 5.36906 10.3571H2.06906V9.28571C2.06906 8.69308 2.59259 8.21429 3.16906 8.21429H6.68906C7.27344 8.21429 7.83031 8.43862 8.24281 8.8404L9.76906 10.3571L13.1722 7.62165L12.6084 6.60714H10.5941C10.1678 6.60714 9.76906 6.24721 9.76906 5.80357C9.76906 5.35993 10.1678 5 10.5941 5H12.7734ZM16.4 15.7143C16.4 16.8962 17.3866 17.8571 18.6 17.8571C19.8134 17.8571 20.8 16.8962 20.8 15.7143C20.8 14.5324 19.8134 13.5714 18.6 13.5714C18.5175 13.5714 18.435 13.5748 18.3559 13.5848L19.3253 15.3326C19.5419 15.721 19.3941 16.2098 18.9919 16.4208C18.5931 16.6317 18.0912 16.4877 17.8747 16.096L16.9053 14.3482C16.5891 14.7199 16.4 15.1953 16.4 15.7143ZM9.72438 16.5179C9.33594 18.5 7.54844 20 5.4 20C2.97003 20 1 18.0815 1 15.7143C1 13.3471 2.97003 11.4286 5.4 11.4286C7.54844 11.4286 9.33594 12.9286 9.72438 14.9107H7.43844C7.11531 14.1239 6.32469 13.5714 5.4 13.5714C4.18484 13.5714 3.2 14.5324 3.2 15.7143C3.2 16.8962 4.18484 17.8571 5.4 17.8571C6.32469 17.8571 7.11531 17.3047 7.43844 16.5179H9.72438ZM4.3 15.7143C4.3 15.1217 4.79156 14.6429 5.4 14.6429C6.00844 14.6429 6.5 15.1217 6.5 15.7143C6.5 16.3069 6.00844 16.7857 5.4 16.7857C4.79156 16.7857 4.3 16.3069 4.3 15.7143Z" fill="#575C66"></path>
</symbol><symbol viewBox="0 0 24 24" id="iconfont-phone">
<path d="M22.08 16.4256C21.7518 15.4504 21.165 14.5825 20.3822 13.9147C19.5994 13.2469 18.65 12.8041 17.6352 12.6336C17.3581 12.5862 17.0732 12.6209 16.8156 12.7335C16.558 12.8461 16.339 13.0316 16.1856 13.2672L14.976 15.0048C14.9129 15.0964 14.8214 15.1649 14.7156 15.1995C14.6098 15.2342 14.4956 15.2333 14.3904 15.1968C13.1368 14.6995 11.9702 14.0061 10.9344 13.1424C9.8008 12.1922 8.84513 11.048 8.11203 9.76319C8.07893 9.70907 8.05689 9.64893 8.04718 9.58624C8.03748 9.52354 8.04029 9.45955 8.05547 9.39795C8.07064 9.33636 8.09788 9.27838 8.1356 9.22737C8.17332 9.17637 8.22078 9.13335 8.27523 9.10079L9.84003 8.05439C10.1013 7.88019 10.2993 7.62637 10.4048 7.33063C10.5103 7.03489 10.5176 6.71301 10.4256 6.41279C10.1339 5.4236 9.68674 4.4871 9.10083 3.63839C8.5171 2.78777 7.80458 2.03314 6.98883 1.40159C6.8159 1.27024 6.61601 1.17886 6.40353 1.13404C6.19105 1.08922 5.97127 1.09207 5.76003 1.14239C5.38765 1.2498 5.02481 1.38787 4.67523 1.55519C2.98193 2.47088 1.71651 4.01558 1.15203 5.85599C1.0561 6.14586 1.0561 6.45892 1.15203 6.74879C2.3637 10.5561 4.52043 13.9943 7.42083 16.7424C9.99127 19.1699 13.0709 20.9933 16.4352 22.08C16.5746 22.1257 16.7205 22.1483 16.8672 22.1472C17.0234 22.1485 17.1788 22.1258 17.328 22.08C19.1632 21.5156 20.7039 20.2541 21.6192 18.5664C21.8216 18.1567 21.9762 17.725 22.08 17.28C22.1689 17.0021 22.1689 16.7035 22.08 16.4256ZM20.8032 18.096C19.9917 19.5644 18.6318 20.6516 17.0208 21.12C16.9238 21.1491 16.8203 21.1491 16.7232 21.12C13.5004 20.0931 10.5482 18.3579 8.08323 16.0416C5.30065 13.3993 3.23026 10.0973 2.06403 6.44159C2.03037 6.34525 2.03037 6.24034 2.06403 6.14399C2.54156 4.55517 3.6241 3.21752 5.07843 2.41919C5.38524 2.27021 5.70706 2.15436 6.03843 2.07359H6.13443C6.24599 2.07202 6.35461 2.10936 6.44163 2.17919C7.18132 2.74492 7.82899 3.42173 8.36163 4.18559C8.8757 4.96376 9.26142 5.81946 9.50403 6.71999C9.53886 6.82478 9.53797 6.93816 9.50149 7.04239C9.46501 7.14661 9.395 7.2358 9.30243 7.29599L7.73763 8.29439C7.4393 8.50279 7.22831 8.8139 7.14506 9.16816C7.06181 9.52242 7.11215 9.89493 7.28643 10.2144C8.80214 12.866 11.1706 14.9266 14.0064 16.0608C14.316 16.1811 14.6575 16.1914 14.9738 16.0901C15.2901 15.9887 15.562 15.7818 15.744 15.504L16.9056 13.7664C16.9568 13.6859 17.0305 13.6221 17.1174 13.5829C17.2044 13.5436 17.301 13.5307 17.3952 13.5456C18.2486 13.688 19.0468 14.0611 19.7034 14.6246C20.3599 15.1881 20.8498 15.9205 21.12 16.7424C21.1436 16.8337 21.1436 16.9295 21.12 17.0208C21.0385 17.3916 20.9162 17.7522 20.7552 18.096H20.8032Z" fill="white"></path>
</symbol><symbol viewBox="0 0 24 24" id="iconfont-search">
<path fill-rule="evenodd" clip-rule="evenodd" d="M10.5 2C9.1446 2.00012 7.80887 2.32436 6.60427 2.94569C5.39966 3.56702 4.3611 4.46742 3.57525 5.57175C2.78939 6.67609 2.27902 7.95235 2.08672 9.29404C1.89442 10.6357 2.02576 12.004 2.46979 13.2846C2.91382 14.5652 3.65766 15.7211 4.63925 16.6557C5.62084 17.5904 6.81171 18.2768 8.11252 18.6576C9.41333 19.0384 10.7864 19.1026 12.117 18.8449C13.4477 18.5872 14.6975 18.015 15.762 17.176L19.414 20.828C19.6026 21.0102 19.8552 21.111 20.1174 21.1087C20.3796 21.1064 20.6304 21.0012 20.8158 20.8158C21.0012 20.6304 21.1064 20.3796 21.1087 20.1174C21.111 19.8552 21.0102 19.6026 20.828 19.414L17.176 15.762C18.164 14.5086 18.7792 13.0024 18.9511 11.4157C19.123 9.82905 18.8448 8.22602 18.1482 6.79009C17.4517 5.35417 16.3649 4.14336 15.0123 3.29623C13.6597 2.44911 12.096 1.99989 10.5 2ZM4.00001 10.5C4.00001 8.77609 4.68483 7.12279 5.90382 5.90381C7.1228 4.68482 8.7761 4 10.5 4C12.2239 4 13.8772 4.68482 15.0962 5.90381C16.3152 7.12279 17 8.77609 17 10.5C17 12.2239 16.3152 13.8772 15.0962 15.0962C13.8772 16.3152 12.2239 17 10.5 17C8.7761 17 7.1228 16.3152 5.90382 15.0962C4.68483 13.8772 4.00001 12.2239 4.00001 10.5Z" fill="white"></path>
</symbol><symbol viewBox="0 0 24 24" id="iconfont-share">
<path d="M4 16C1.76 16 0 14.24 0 12C0 9.76 1.76 8 4 8C6.24 8 8 9.76 8 12C8 14.24 6.24 16 4 16ZM4 9.6C2.64 9.6 1.6 10.64 1.6 12C1.6 13.36 2.64 14.4 4 14.4C5.36 14.4 6.4 13.36 6.4 12C6.4 10.64 5.36 9.6 4 9.6ZM20 8C17.76 8 16 6.24 16 4C16 1.76 17.76 0 20 0C22.24 0 24 1.76 24 4C24 6.24 22.24 8 20 8ZM20 1.6C18.64 1.6 17.6 2.64 17.6 4C17.6 5.36 18.64 6.4 20 6.4C21.36 6.4 22.4 5.36 22.4 4C22.4 2.64 21.36 1.6 20 1.6ZM20 24C17.76 24 16 22.24 16 20C16 17.76 17.76 16 20 16C22.24 16 24 17.76 24 20C24 22.24 22.24 24 20 24ZM20 17.6C18.64 17.6 17.6 18.64 17.6 20C17.6 21.36 18.64 22.4 20 22.4C21.36 22.4 22.4 21.36 22.4 20C22.4 18.64 21.36 17.6 20 17.6Z" fill="#6B6B6B"></path>
<path d="M7.20526 12.708L17.5093 17.86L16.7933 19.2904L6.48926 14.1384L7.20526 12.708ZM16.7941 4.70801L17.5093 6.14001L7.20526 11.2904L6.49006 9.85841L16.7941 4.70801Z" fill="#6B6B6B"></path>
</symbol><symbol viewBox="0 0 24 24" id="iconfont-special">
<path d="M18.5003 14.5C16.9815 14.5 15.7502 15.7313 15.7502 17.25C15.7502 18.7688 16.9815 20 18.5003 20C20.019 20 21.2503 18.7688 21.2503 17.25C21.2503 15.7313 20.019 14.5 18.5003 14.5ZM18.5003 18C18.0868 18 17.7502 17.6634 17.7502 17.25C17.7502 16.8366 18.0868 16.5 18.5003 16.5C18.9137 16.5 19.2503 16.8366 19.2503 17.25C19.2503 17.6634 18.9137 18 18.5003 18ZM21.0003 9H19.0003V7.74375C19.0003 7.3025 19.1471 6.87625 19.4112 6.53C19.5493 6.34875 19.5222 6.09063 19.37 5.92094L18.694 5.16563C18.4859 4.93281 18.1215 4.94938 17.9221 5.19C17.3309 5.90313 17.0002 6.80656 17.0002 7.74375V9H13.8024L12.0495 4.91063C11.9344 4.64026 11.7422 4.40975 11.497 4.24783C11.2518 4.0859 10.9643 3.99971 10.6704 4H6.50007C5.67287 4 5.00005 4.67281 5.00005 5.5V10.0788C4.73036 9.86844 4.34504 9.87688 4.09722 10.1247L3.12502 11.0969C2.85658 11.3653 2.85658 11.8006 3.12502 12.0691L3.28315 12.2272C3.12721 12.5166 3.00314 12.8153 2.91095 13.1247H2.68751C2.30782 13.1247 2 13.4325 2 13.8122V15.1872C2 15.5669 2.30782 15.8747 2.68751 15.8747H2.91064C3.00314 16.1844 3.12689 16.4828 3.28283 16.7725L3.12471 16.9306C2.85626 17.1991 2.85626 17.6344 3.12471 17.9028L4.09691 18.875C4.36535 19.1434 4.80067 19.1434 5.06911 18.875L5.22724 18.7169C5.51662 18.8728 5.81537 18.9969 6.12475 19.0891V19.3125C6.12475 19.6922 6.43257 20 6.81226 20H8.18728C8.56698 20 8.87479 19.6922 8.87479 19.3125V19.0894C9.18418 18.9972 9.48293 18.8731 9.77231 18.7172L9.93044 18.8753C10.1989 19.1438 10.6342 19.1438 10.9026 18.8753L11.8748 17.9031C12.1433 17.6347 12.1433 17.1994 11.8748 16.9309L11.7167 16.7728C11.8727 16.4834 11.9967 16.1847 12.0889 15.8753H12.3127C12.6924 15.8753 13.0002 15.5675 13.0002 15.1878V15.0003H15.5171C16.2018 14.0944 17.2771 13.5003 18.5003 13.5003C19.0828 13.5003 19.6275 13.6444 20.119 13.8816L21.7072 12.2934C21.8947 12.1059 22 11.8516 22 11.5863V10C22.0003 9.44781 21.5525 9 21.0003 9ZM7.50009 17C6.11944 17 5.00005 15.8806 5.00005 14.5C5.00005 13.1194 6.11944 12 7.50009 12C8.88073 12 10.0001 13.1194 10.0001 14.5C10.0001 15.8806 8.88073 17 7.50009 17ZM8.1876 9H7.00008V6H10.3404L11.6264 9H8.1876Z" fill="#575C66"></path>
</symbol><symbol viewBox="0 0 24 24" id="iconfont-suv">
<path d="M23.625 14.5814C23.8313 14.5814 24 14.414 24 14.2093V13.2791C24 13.0744 23.8313 12.907 23.625 12.907C23.4187 12.907 23.25 13.0744 23.25 13.2791V14.2093C23.25 14.414 23.4187 14.5814 23.625 14.5814Z" fill="#3D62A9"></path>
<path d="M1.60938 13.3721C1.94687 13.3721 2.21875 13.1024 2.21875 12.7675V8.76749C2.21875 8.43261 1.94687 8.16284 1.60938 8.16284C1.27188 8.16284 1 8.43261 1 8.76749V12.7675C1 13.1024 1.27188 13.3721 1.60938 13.3721Z" fill="#3D62A9"></path>
<path d="M10.3036 6.53491H13.2379C13.3317 6.53491 13.4161 6.59073 13.4442 6.68375L14.3348 9.13026C14.3723 9.22328 14.3348 9.2977 14.3067 9.33491C14.2786 9.37212 14.2223 9.42794 14.1286 9.42794H10.3036C10.1817 9.42794 10.0786 9.32561 10.0786 9.20468V6.75817C10.0786 6.63724 10.1817 6.53491 10.3036 6.53491Z" fill="#3D62A9"></path>
<path d="M2.71875 5H14.3438C15 5 15.8438 7.88372 16.2188 8.90698C16.5938 9.93023 20.9062 10.3023 21.9375 10.3953C22.9688 10.4884 23.1562 11.7907 23.1562 12.0698C23.1562 12.3488 22.5 12.907 22.5 12.907V14.4884C22.5938 15.1395 23.3906 15.2791 23.3906 15.2791C22.7344 16.2093 22.0781 15.5581 22.0781 15.5581C22.0781 15.5581 21.4688 12.5349 18.375 12.5349C15.2812 12.5349 14.5312 15.6977 14.5312 15.6977H10.875C10.875 15.6977 10.5 12.5349 7.3125 12.5349C4.125 12.5349 3.46875 15.6977 3.46875 15.6977C2.625 16.1628 2.15625 15.2326 2.15625 15.2326V5.83721C2.15625 5.18605 2.71875 5 2.71875 5ZM10.875 11.5116H11.625C11.8875 11.5116 12.0938 11.2977 12.0938 11.0465C12.0938 10.7953 11.8781 10.5814 11.625 10.5814H10.875C10.6125 10.5814 10.4062 10.7953 10.4062 11.0465C10.4062 11.2977 10.6125 11.5116 10.875 11.5116ZM9.32812 9.19535C9.32812 9.72558 9.75937 10.1628 10.3031 10.1628H14.1281C14.8031 10.1628 15.2719 9.50233 15.0469 8.86977L14.1562 6.42326C14.0156 6.04186 13.65 5.7907 13.2375 5.7907H10.3031C9.76875 5.7907 9.32812 6.2186 9.32812 6.75814V9.19535ZM2.8125 9.20465C2.8125 9.75349 3.2625 10.1907 3.80625 10.1907H7.44375C7.99687 10.1907 8.4375 9.74419 8.4375 9.20465V6.81395C8.4375 6.26512 7.9875 5.82791 7.44375 5.82791H3.80625C3.25313 5.82791 2.8125 6.27442 2.8125 6.81395V9.20465Z" fill="#3D62A9"></path>
<path d="M3.80625 6.56274H7.44375C7.575 6.56274 7.6875 6.67437 7.6875 6.8046V9.2046C7.6875 9.33484 7.575 9.44647 7.44375 9.44647H3.80625C3.675 9.44647 3.5625 9.33484 3.5625 9.2046V6.81391C3.5625 6.67437 3.675 6.56274 3.80625 6.56274Z" fill="#3D62A9"></path>
<circle cx="18.4004" cy="16.3" r="2" stroke="#3D62A9" stroke-width="2"></circle>
<circle cx="7.2002" cy="16.3" r="2" stroke="#3D62A9" stroke-width="2"></circle>
</symbol><symbol viewBox="0 0 24 24" id="iconfont-telegram">
<path d="M21.2935 2.91409C18.3405 4.13713 5.67861 9.38185 2.18013 10.8113C-0.16611 11.7269 1.20741 12.5854 1.20741 12.5854C1.20741 12.5854 3.21021 13.272 4.92717 13.7871C6.64389 14.3021 7.55949 13.7299 7.55949 13.7299L15.6283 8.29345C18.4896 6.34777 17.8029 7.95001 17.1161 8.63689C15.6283 10.1249 13.1676 12.4709 11.1074 14.3595C10.1918 15.1606 10.6495 15.8472 11.0503 16.1907C12.538 17.4497 16.6013 20.0249 16.83 20.1965C18.0389 21.0523 20.4168 22.2843 20.7785 19.6815L22.2091 10.6971C22.667 7.66417 23.1247 4.86001 23.1818 4.05889C23.3537 2.11297 21.2935 2.91409 21.2935 2.91409Z" fill="#1B92D1"></path>
</symbol></svg>