<svg width="24" height="24" viewBox="0 0 24 24" fill="none" xmlns="http://www.w3.org/2000/svg">
<path d="M6.87093 16.6827C6.95405 16.7104 7.03089 16.7541 7.09707 16.8115C7.16324 16.8688 7.21744 16.9387 7.25658 17.017C7.29571 17.0952 7.31901 17.1805 7.32514 17.2677C7.33128 17.355 7.32012 17.4427 7.29232 17.5256L6.62556 19.5231C6.60045 19.6091 6.55823 19.6891 6.50141 19.7584C6.4446 19.8278 6.37437 19.8849 6.29493 19.9265C6.21548 19.968 6.12846 19.9932 6.03906 20.0004C5.94966 20.0076 5.85972 19.9967 5.77464 19.9683C5.68955 19.94 5.61106 19.8949 5.54387 19.8355C5.47667 19.7762 5.42215 19.704 5.38357 19.6231C5.34499 19.5422 5.32314 19.4544 5.31933 19.365C5.31553 19.2755 5.32983 19.1861 5.36141 19.1023L6.02816 17.1048C6.08387 16.9373 6.20396 16.7986 6.36201 16.7195C6.52005 16.6403 6.70311 16.6271 6.87093 16.6827ZM10.8714 16.6827C10.9546 16.7104 11.0314 16.7541 11.0976 16.8115C11.1637 16.8688 11.2179 16.9387 11.2571 17.017C11.2962 17.0952 11.3195 17.1805 11.3256 17.2677C11.3318 17.355 11.3206 17.4427 11.2928 17.5256L9.95932 21.5206C9.93421 21.6066 9.89198 21.6866 9.83517 21.7559C9.77835 21.8252 9.70813 21.8824 9.62868 21.9239C9.54924 21.9655 9.46221 21.9907 9.37281 21.9978C9.28341 22.005 9.19348 21.9942 9.10839 21.9658C9.02331 21.9375 8.94482 21.8923 8.87762 21.833C8.81043 21.7737 8.75591 21.7014 8.71733 21.6206C8.67875 21.5397 8.6569 21.4519 8.65309 21.3624C8.64928 21.273 8.66359 21.1836 8.69516 21.0998L10.0287 17.1048C10.0844 16.9373 10.2045 16.7986 10.3625 16.7195C10.5206 16.6403 10.7036 16.6271 10.8714 16.6827ZM14.8719 16.6827C14.9551 16.7104 15.0319 16.7541 15.0981 16.8115C15.1642 16.8688 15.2184 16.9387 15.2576 17.017C15.2967 17.0952 15.32 17.1805 15.3262 17.2677C15.3323 17.355 15.3211 17.4427 15.2933 17.5256L14.6266 19.5231C14.6015 19.6091 14.5592 19.6891 14.5024 19.7584C14.4456 19.8278 14.3754 19.8849 14.2959 19.9265C14.2165 19.968 14.1295 19.9932 14.0401 20.0004C13.9507 20.0076 13.8607 19.9967 13.7756 19.9683C13.6906 19.94 13.6121 19.8949 13.5449 19.8355C13.4777 19.7762 13.4232 19.704 13.3846 19.6231C13.346 19.5422 13.3242 19.4544 13.3203 19.365C13.3165 19.2755 13.3308 19.1861 13.3624 19.1023L14.0292 17.1048C14.0849 16.9373 14.205 16.7986 14.363 16.7195C14.5211 16.6403 14.7041 16.6271 14.8719 16.6827ZM18.8724 16.6827C18.9556 16.7104 19.0324 16.7541 19.0986 16.8115C19.1647 16.8688 19.219 16.9387 19.2581 17.017C19.2972 17.0952 19.3205 17.1805 19.3267 17.2677C19.3328 17.355 19.3216 17.4427 19.2938 17.5256L17.9603 21.5206C17.9352 21.6066 17.893 21.6866 17.8362 21.7559C17.7794 21.8252 17.7091 21.8824 17.6297 21.9239C17.5502 21.9655 17.4632 21.9907 17.3738 21.9978C17.2844 22.005 17.1945 21.9942 17.1094 21.9658C17.0243 21.9375 16.9458 21.8923 16.8786 21.833C16.8114 21.7737 16.7569 21.7014 16.7183 21.6206C16.6798 21.5397 16.6579 21.4519 16.6541 21.3624C16.6503 21.273 16.6646 21.1836 16.6962 21.0998L18.0297 17.1048C18.0854 16.9373 18.2055 16.7986 18.3635 16.7195C18.5216 16.6403 18.7046 16.6271 18.8724 16.6827ZM19.2018 7.36377C18.9249 5.96975 18.2087 4.70074 17.1578 3.74231C16.107 2.78387 14.7767 2.18628 13.3614 2.0369C11.9461 1.88752 10.5201 2.19418 9.29185 2.91206C8.06359 3.62994 7.09752 4.72138 6.53489 6.02679C5.90392 5.95421 5.26476 6.01099 4.65654 6.19366C4.04832 6.37633 3.48383 6.68105 2.99764 7.08916C2.51144 7.49726 2.11378 8.00017 1.82899 8.5671C1.5442 9.13402 1.37828 9.75302 1.34138 10.3862C1.30448 11.0194 1.39739 11.6534 1.61441 12.2495C1.83143 12.8456 2.168 13.3912 2.6035 13.8528C3.03901 14.3145 3.5643 14.6826 4.1472 14.9344C4.7301 15.1863 5.35835 15.3168 5.99348 15.3178H18.6617C19.6767 15.3189 20.6541 14.9348 21.3961 14.2432C22.138 13.5516 22.589 12.6043 22.6577 11.593C22.7263 10.5818 22.4075 9.58236 21.7659 8.79708C21.1242 8.01181 20.2076 7.49944 19.2018 7.36377Z" fill="#0F76D1"/>
</svg>
