<svg xmlns="http://www.w3.org/2000/svg" width="24" height="24" fill="none"><path fill="#0F76D1" d="M6.87 16.683a.667.667 0 0 1 .422.843l-.666 1.997a.665.665 0 0 1-1.082.313.665.665 0 0 1-.183-.734l.667-1.997a.666.666 0 0 1 .843-.422m4.001 0a.666.666 0 0 1 .422.843L9.959 21.52a.665.665 0 0 1-1.081.312.67.67 0 0 1-.183-.733l1.334-3.995a.666.666 0 0 1 .842-.422m4 0a.666.666 0 0 1 .422.843l-.666 1.997a.665.665 0 0 1-1.082.313.665.665 0 0 1-.183-.734l.667-1.997a.666.666 0 0 1 .843-.422m4.001 0a.666.666 0 0 1 .422.843L17.96 21.52a.665.665 0 0 1-1.081.312.67.67 0 0 1-.183-.733l1.334-3.995a.666.666 0 0 1 .842-.422m.33-9.32a6.66 6.66 0 0 0-2.044-3.62A6.673 6.673 0 0 0 6.535 6.026a4.67 4.67 0 0 0-4.706 2.54 4.656 4.656 0 0 0 2.318 6.367 4.7 4.7 0 0 0 1.846.384h12.669a4 4 0 0 0 2.734-1.075 3.993 3.993 0 0 0-2.194-6.88"/></svg>