<svg xmlns="http://www.w3.org/2000/svg" width="24" height="24" fill="none"><g fill="#707680" clip-path="url(#a)"><path d="m6.558 8.82.325-.289 3.952 4.45-.325.289z"/><path d="m6.614 13.957-.289-.325 4.45-3.952.289.325zM12.748 10.008l.288-.325 4.45 3.952-.288.325z"/><path d="m13.33 13.27-.325-.288 3.952-4.45.325.288zM10.302 9.614h.693v3.991h-.693z"/><path d="M12.869 9.434h.693v3.991h-.694z"/><path d="M6.908 12.939h9.456v.666H6.908zM20.95 7.984l.67.117-.663 3.784-.67-.117z"/><path d="m20.29 11.768.666.118.013-.066-.403-.07.649-3.724-.263-.044zM17.56 12.143l-.616.29-1.634-3.478.615-.289z"/><path d="m17.562 12.145-.614.285-.031-.057.373-.176-1.61-3.416.246-.114zM18.203 8.428l.647-.163.78 3.082-.647.164zM3.707 11.765l-.67.117-.661-3.785.67-.117z"/><path d="m3.706 11.768-.671.118-.009-.066.404-.07-.654-3.724.268-.044zM7.042 8.831l.615.29-1.634 3.477-.615-.29z"/><path d="m5.412 12.307.614.29.026-.058-.373-.175 1.61-3.417-.246-.118zM5.353 11.004l-.666-.03.115-2.677.666.03zM15.259 16.487a4.4 4.4 0 0 1-.145-1.605l-.246-.08.356-1.745.42.132a4.3 4.3 0 0 1 1.036-1.237l-.119-.228 1.487-.983.206.39a4.4 4.4 0 0 1 1.606-.144l.079-.246 1.745.356-.131.42c.473.264.894.619 1.236 1.036l.228-.119.983 1.487-.39.206c.144.509.197 1.08.144 1.605l.246.08-.355 1.745-.421-.132a4.3 4.3 0 0 1-1.035 1.237l.118.228-1.487.983-.206-.39c-.509.144-1.079.197-1.605.144l-.08.246-1.745-.356.132-.42a4.3 4.3 0 0 1-1.237-1.036l-.228.119-.983-1.487zm5.965-1.333c-.241-2.351-3.741-2.049-3.58.306.242 2.347 3.742 2.049 3.58-.307"/><path d="M18.324 15.307c.026 1.456 2.189 1.456 2.215 0-.022-1.456-2.189-1.456-2.215 0M3.557 15.307c.026 1.456 2.188 1.456 2.214 0-.021-1.456-2.188-1.456-2.214 0"/><path d="M.404 16.127a4.3 4.3 0 0 1-.005-1.614l-.237-.096.505-1.71.408.166a4.3 4.3 0 0 1 1.136-1.145l-.101-.237 1.566-.855.17.408a4.3 4.3 0 0 1 1.615-.005l.096-.236 1.71.504-.166.408c.447.303.838.688 1.145 1.136l.237-.101.855 1.566-.408.17c.1.518.105 1.093.004 1.615l.237.096-.504 1.71-.408-.166a4.3 4.3 0 0 1-1.136 1.145l.1.237-1.565.855-.171-.408a4.3 4.3 0 0 1-1.614.005l-.097.236-1.71-.504.167-.408a4.3 4.3 0 0 1-1.145-1.136l-.237.101-.855-1.566zm6.057-.82c-.04-2.36-3.553-2.36-3.592 0 .043 2.36 3.552 2.36 3.592 0M2.527 8.654c4.206-.106 2.5-.623 5.399 2.35a.3.3 0 0 0 .228.101h4.653c.127.167 1.83-1.969 1.93-2.022a.32.32 0 0 1 .228-.105l5.575-.088c.11 0 .21.053.267.145.106.14.369.741.61.697.566.075.39-1.93.202-2.302-1.496-.667-5.877-.272-6.698-.342-.114.083-8.03.276-8.03.276.03.355-3.948.21-4.119.29-.276.052-.39.236-.548.587a.31.31 0 0 0 .303.413"/><path d="M7.246 5h6.71q.16.001.286.1l2.162 1.764.592.491-11.553.29 1.47-2.456A.39.39 0 0 1 7.246 5M14.8 7l.956.013c.061 0 .092-.079.04-.118l-1.716-1.32a.37.37 0 0 0-.223-.075h-.544c-.066 0-.101.079-.053.127l1.206 1.228c.088.092.21.145.334.145m-3.373-.206a.22.22 0 0 0 .22.202l1.78.013c.193 0 .298-.233.162-.373L12.575 5.57a.23.23 0 0 0-.162-.07h-.856a.22.22 0 0 0-.219.241zm-4.237.224L10.61 7a.276.276 0 0 0 .276-.29l-.043-.938a.275.275 0 0 0-.277-.263h-2.92a.28.28 0 0 0-.25.158l-.457.951c-.088.185.044.4.25.4"/></g><defs><clipPath id="a"><path fill="#fff" d="M24 0H0v24h24z"/></clipPath></defs></svg>