<svg xmlns="http://www.w3.org/2000/svg" width="24" height="24" fill="none"><path fill="#0F76D1" d="m21.259 16.03-1.68-.935 1.461-.378a.646.646 0 0 0 .476-.796l-.176-.63c-.094-.345-.467-.552-.827-.459l-3.415.882L14.02 12l3.081-1.715 3.415.882a.68.68 0 0 0 .827-.46l.176-.629a.65.65 0 0 0-.476-.796l-1.46-.378 1.679-.934a.64.64 0 0 0 .248-.89l-.338-.565a.69.69 0 0 0-.921-.24l-1.68.935.39-1.41a.65.65 0 0 0-.476-.796l-.651-.167a.68.68 0 0 0-.827.46l-.913 3.29-3.08 1.715V6.869l2.497-2.41a.635.635 0 0 0 0-.918l-.475-.459a.693.693 0 0 0-.952 0L13.02 4.114V2.25c0-.358-.3-.65-.673-.65h-.673a.66.66 0 0 0-.673.65v1.872L9.933 3.091a.693.693 0 0 0-.951 0l-.493.459a.636.636 0 0 0 0 .918l2.498 2.409v3.433l-3.08-1.715-.913-3.29c-.094-.346-.467-.553-.827-.46l-.652.167a.646.646 0 0 0-.475.796l.39 1.41-1.68-.934a.69.69 0 0 0-.921.24l-.339.564a.64.64 0 0 0 .249.89l1.68.934-1.462.37a.646.646 0 0 0-.475.796l.175.63c.095.345.467.552.827.459l3.416-.882L9.98 12 6.9 13.714l-3.416-.882a.68.68 0 0 0-.827.46l-.175.63a.65.65 0 0 0 .475.795l1.461.378-1.68.935a.64.64 0 0 0-.248.89l.339.564c.184.313.6.418.921.24l1.68-.935-.39 1.41a.65.65 0 0 0 .475.796l.652.167a.68.68 0 0 0 .827-.46l.913-3.29 3.08-1.714v3.433L8.49 19.54a.635.635 0 0 0 0 .918l.476.459c.261.252.69.252.951 0l1.067-1.032v1.865c0 .357.3.65.673.65h.673a.66.66 0 0 0 .672-.65v-1.873l1.067 1.032c.262.252.69.252.952 0l.475-.46a.635.635 0 0 0 0-.918l-2.498-2.409V13.69l3.081 1.714.913 3.29c.094.346.467.553.827.46l.651-.167a.646.646 0 0 0 .476-.796l-.39-1.41 1.68.934a.69.69 0 0 0 .92-.24l.34-.564a.617.617 0 0 0-.236-.881"/></svg>