<svg width="24" height="24" viewBox="0 0 24 24" fill="none" xmlns="http://www.w3.org/2000/svg">
<path d="M12 7.48114V4.25855C11.9996 4.00968 11.9261 3.7665 11.7887 3.55965C11.6514 3.3528 11.4563 3.19154 11.2281 3.0962C10.9999 3.00085 10.7489 2.97568 10.5065 3.02387C10.2641 3.07205 10.0414 3.19143 9.86625 3.36695L2 11.1848L9.86625 19.0014C9.98207 19.1187 10.1198 19.2119 10.2714 19.2754C10.4231 19.3389 10.5857 19.3717 10.75 19.3717C10.9143 19.3717 11.0769 19.3389 11.2286 19.2754C11.3802 19.2119 11.5179 19.1187 11.6337 19.0014C11.7499 18.8845 11.842 18.7457 11.9049 18.5929C11.9677 18.4402 12 18.2764 12 18.111V14.9766C15.4375 15.0622 19.1938 15.6894 22 20V18.7407C22 12.9063 17.625 8.10828 12 7.48114Z" fill="#0071DC"/>
</svg>
