<?xml version="1.0" standalone="no"?>
<!DOCTYPE svg PUBLIC "-//W3C//DTD SVG 20010904//EN"
 "http://www.w3.org/TR/2001/REC-SVG-20010904/DTD/svg10.dtd">
<svg version="1.0" xmlns="http://www.w3.org/2000/svg"
 width="700.000000pt" height="700.000000pt" viewBox="0 0 700.000000 700.000000"
 preserveAspectRatio="xMidYMid meet">
<metadata>
Created by potrace 1.14, written by Peter Selinger 2001-2017
</metadata>
<g transform="translate(0.000000,700.000000) scale(0.100000,-0.100000)"
fill="#000000" stroke="none">
<path d="M3737 6474 c-1 -1 -49 -4 -107 -8 -58 -3 -116 -8 -130 -11 -14 -2
-50 -7 -80 -10 -64 -7 -90 -10 -145 -20 -22 -4 -51 -8 -65 -10 -14 -2 -26 -4
-27 -5 -5 -4 -38 -11 -113 -24 -14 -3 -40 -9 -58 -15 -18 -5 -35 -10 -37 -10
-3 -1 -6 -1 -7 -2 -2 0 -14 -3 -28 -5 -14 -3 -43 -10 -65 -16 -48 -14 -46 -13
-65 -20 -13 -5 -97 -30 -110 -33 -23 -5 -126 -41 -185 -65 -55 -22 -134 -55
-165 -68 -19 -9 -37 -16 -40 -17 -14 -3 -196 -95 -265 -135 -138 -80 -337
-214 -392 -264 -6 -6 -30 -27 -53 -46 -67 -55 -81 -68 -140 -125 -122 -118
-251 -266 -330 -380 -19 -27 -37 -52 -40 -55 -6 -6 -10 -13 -81 -130 -45 -73
-197 -362 -198 -375 -1 -3 -8 -22 -17 -43 -28 -65 -75 -187 -79 -202 -2 -8
-12 -40 -23 -70 -11 -30 -34 -104 -51 -165 -26 -97 -38 -147 -56 -245 -3 -14
-7 -36 -10 -50 -10 -50 -17 -96 -20 -125 -1 -16 -6 -66 -11 -110 -16 -146 -9
-559 10 -662 3 -11 7 -44 11 -74 3 -30 10 -70 15 -89 5 -19 12 -51 15 -70 16
-95 79 -316 116 -407 7 -15 18 -44 26 -63 8 -19 18 -43 23 -52 6 -10 10 -24
10 -32 0 -7 7 -19 15 -26 8 -7 12 -17 8 -24 -3 -6 -2 -7 3 -3 9 9 14 57 5 57
-3 0 -7 46 -8 103 -1 56 -5 120 -8 142 -4 38 -3 37 21 -20 39 -94 46 -109 55
-127 5 -10 9 -25 9 -33 0 -8 5 -15 10 -15 6 0 10 -5 10 -12 0 -48 237 -445
323 -539 9 -10 17 -22 17 -26 0 -5 15 -24 33 -44 17 -19 49 -57 71 -83 63 -78
357 -366 373 -366 3 0 15 -9 27 -20 35 -33 150 -121 208 -160 21 -14 38 -28
38 -32 0 -5 5 -8 11 -8 5 0 48 -25 94 -55 45 -30 88 -55 94 -55 6 0 11 -3 11
-7 0 -5 27 -21 60 -38 33 -16 60 -33 60 -38 0 -4 4 -6 9 -3 5 3 20 -3 34 -15
15 -11 29 -19 32 -19 3 1 29 -10 58 -23 29 -14 79 -37 112 -52 33 -15 63 -29
68 -32 4 -2 7 -2 7 2 0 3 -15 14 -32 25 -18 11 -30 20 -26 20 3 0 -8 15 -24
33 -31 32 -63 95 -54 104 2 3 19 -2 38 -10 18 -8 71 -27 118 -42 47 -16 96
-33 110 -38 14 -6 30 -11 35 -12 6 -2 51 -15 100 -30 101 -30 261 -71 303 -78
15 -3 38 -8 52 -11 14 -4 39 -8 55 -10 17 -3 41 -7 55 -10 44 -11 224 -9 252
2 35 14 27 38 -15 46 -25 5 -29 9 -17 16 11 7 5 10 -25 11 -22 1 -49 3 -60 4
-153 21 -182 26 -266 45 -26 6 -53 13 -60 14 -85 16 -303 90 -424 144 -138 62
-320 164 -425 238 -19 14 -46 33 -59 42 -13 9 -32 24 -41 33 -9 8 -26 22 -37
30 -33 23 -172 149 -219 199 -49 52 -72 78 -122 139 -21 25 -45 53 -54 63 -10
10 -15 18 -12 18 3 0 -10 19 -28 43 -19 23 -45 60 -59 82 -55 87 -54 89 19 36
38 -28 75 -51 81 -51 6 0 11 -4 11 -8 0 -13 379 -252 399 -252 5 0 11 -4 13
-8 3 -8 358 -187 423 -213 68 -28 80 -32 87 -33 4 -1 13 -7 20 -13 6 -7 20
-13 30 -13 11 0 32 -7 47 -15 16 -8 31 -11 35 -8 3 4 6 1 6 -5 0 -7 8 -12 19
-12 10 0 40 -9 67 -19 27 -10 69 -24 94 -31 25 -7 54 -16 65 -20 19 -7 178
-45 235 -55 14 -3 36 -7 50 -10 14 -3 42 -7 62 -9 21 -2 41 -7 45 -9 18 -11
210 -22 378 -21 217 1 311 13 525 68 46 12 152 51 198 74 48 23 69 51 40 53
-7 0 2 5 21 11 54 15 111 59 236 183 64 63 120 115 125 115 6 0 10 4 10 9 0
10 -48 2 -56 -10 -7 -12 -24 -11 -24 1 0 5 12 16 28 24 15 8 39 26 54 40 15
14 31 26 36 26 10 0 72 63 72 74 0 4 -30 -10 -67 -30 -38 -21 -77 -42 -88 -48
-11 -7 -39 -24 -62 -39 -24 -15 -47 -27 -52 -27 -5 0 -11 -3 -13 -7 -5 -12
-110 -79 -136 -87 -12 -4 -22 -11 -22 -16 0 -4 -10 -11 -22 -15 -27 -9 -20 -6
-83 -34 -50 -23 -141 -55 -160 -56 -5 0 -14 -3 -20 -7 -5 -3 -37 -12 -70 -19
-85 -18 -86 -18 -125 -24 -19 -3 -51 -7 -70 -10 -66 -11 -125 -14 -275 -13
-194 0 -241 4 -430 34 -16 3 -59 12 -95 20 -36 9 -72 17 -80 19 -123 28 -310
95 -445 160 -122 58 -268 142 -273 156 -2 5 -8 9 -13 9 -9 0 -65 36 -79 50 -3
3 -23 18 -45 35 -66 49 -95 76 -198 179 -134 135 -228 258 -344 451 -16 26
-93 183 -93 188 0 3 -8 22 -17 43 -9 22 -17 41 -18 44 -1 3 -11 37 -24 75 -12
39 -24 78 -27 88 -2 9 -6 26 -9 37 -19 74 -34 163 -42 235 -9 91 -9 363 0 440
13 96 26 178 35 210 5 17 8 38 6 48 -1 9 2 17 8 17 5 0 8 8 7 18 -1 9 0 24 3
32 3 8 14 42 23 75 15 53 36 118 53 165 3 8 6 20 8 25 10 39 62 148 90 191
118 178 421 383 779 529 50 20 99 40 110 44 11 5 34 14 50 20 17 6 44 16 60
22 17 7 39 14 49 16 11 2 25 8 33 14 7 6 13 9 13 6 0 -3 38 7 85 23 47 16 85
26 85 23 0 -3 7 0 15 7 8 7 15 10 15 7 0 -3 20 1 45 9 25 7 45 10 45 5 0 -6
-210 -130 -316 -187 -11 -6 -55 -32 -97 -57 -42 -26 -80 -47 -84 -47 -5 0 -14
-9 -21 -21 -12 -19 -11 -19 8 -9 12 6 30 13 41 16 10 2 28 6 38 8 11 3 29 10
40 16 12 6 21 8 21 5 0 -3 15 1 33 8 17 8 37 15 42 16 6 1 28 7 50 13 22 6 45
12 50 14 17 4 289 96 315 107 14 6 27 11 30 11 15 4 157 61 165 67 19 13 176
59 228 66 113 16 638 3 704 -17 49 -15 106 -65 153 -133 40 -60 74 -75 171
-78 85 -2 150 -18 229 -57 63 -30 182 -117 173 -126 -4 -3 -1 -6 4 -6 12 0
153 -134 153 -145 0 -3 6 -13 14 -21 8 -8 22 -40 31 -72 18 -64 58 -145 89
-180 64 -72 116 -121 156 -147 52 -34 59 -37 120 -39 104 -5 231 -148 255
-287 3 -19 9 -43 12 -54 3 -11 7 -29 8 -40 1 -11 5 -31 9 -45 4 -14 9 -41 11
-60 5 -45 15 -93 20 -99 12 -11 35 26 41 65 8 56 8 252 0 409 -4 66 -9 165
-12 220 -8 165 -9 235 -3 235 8 0 28 -47 34 -81 8 -43 55 -181 78 -229 19 -39
61 -88 77 -91 3 0 14 -2 25 -4 25 -5 81 29 102 62 25 38 23 118 -5 198 -24 70
-111 231 -159 294 -6 9 -37 50 -67 91 -30 41 -61 82 -69 90 -7 8 -31 37 -53
64 -21 27 -48 59 -59 71 -11 11 -47 52 -80 89 -33 38 -65 74 -71 80 -19 20 -5
34 29 29 32 -5 124 -37 195 -69 20 -9 48 -21 62 -26 14 -6 33 -14 43 -19 27
-14 20 -2 -21 39 -21 20 -60 66 -88 102 -93 118 -96 147 -10 81 62 -46 76 -50
76 -20 0 23 -60 129 -72 129 -5 0 -8 5 -8 12 0 14 -6 21 -131 146 -56 56 -108
102 -116 102 -7 0 -13 5 -13 10 0 6 -7 10 -15 10 -8 0 -15 3 -15 8 0 4 -18 16
-40 26 -55 27 -115 79 -129 115 -11 24 -10 35 4 65 19 39 31 43 78 22 65 -28
129 -47 180 -52 19 -2 30 4 38 18 14 26 -22 82 -111 168 -61 59 -204 155 -251
167 -10 3 -19 9 -19 14 0 5 -3 8 -7 7 -5 -1 -30 8 -58 21 -27 12 -60 26 -72
32 -13 5 -33 13 -45 19 -77 33 -394 143 -448 155 -8 2 -15 4 -15 5 0 1 -8 3
-17 6 -31 7 -97 26 -143 41 -16 5 -398 102 -420 107 -42 9 -171 35 -195 40
-14 3 -36 7 -50 10 -13 3 -42 8 -65 11 -22 4 -53 9 -70 12 -28 4 -213 11 -218
7z"/>
<path d="M3606 598 c3 -5 10 -6 15 -3 13 9 11 12 -6 12 -8 0 -12 -4 -9 -9z"/>
</g>
</svg>
