<svg width="24" height="24" viewBox="0 0 24 24" fill="none" xmlns="http://www.w3.org/2000/svg">
<path d="M6.14995 15.36L3.21302 3.86032H2.70141e-07V2.05273H4.61695L5.30931 4.76359L24 4.75022L22.0129 15.3599H6.14995V15.36ZM5.77084 6.57086L7.55389 13.5524H20.5124L21.8222 6.55937L5.77084 6.57086Z" fill="black"/>
<path d="M8.62436 21.9474C7.03046 21.9474 5.73373 20.6506 5.73373 19.0567C5.73373 17.4628 7.03046 16.1661 8.62436 16.1661H19.5151C21.109 16.1661 22.4058 17.4628 22.4058 19.0567C22.4058 20.6506 21.109 21.9474 19.5151 21.9474C17.9212 21.9474 16.6245 20.6506 16.6245 19.0567C16.6245 18.674 16.6995 18.3084 16.8352 17.9737H11.3043C11.44 18.3084 11.515 18.674 11.515 19.0567C11.515 20.6506 10.2183 21.9474 8.62436 21.9474ZM18.4321 19.0567C18.4321 19.654 18.9179 20.1398 19.5151 20.1398C20.1123 20.1398 20.5982 19.654 20.5982 19.0567C20.5982 18.4596 20.1123 17.9737 19.5151 17.9737C18.9179 17.9737 18.4321 18.4596 18.4321 19.0567ZM7.54129 19.0567C7.54129 19.654 8.02713 20.1398 8.62433 20.1398C9.22153 20.1398 9.70737 19.654 9.70737 19.0567C9.70737 18.4596 9.22153 17.9737 8.62433 17.9737C8.02713 17.9737 7.54129 18.4596 7.54129 19.0567Z" fill="black"/>
</svg>
