<svg width="24" height="24" viewBox="0 0 24 24" fill="none" xmlns="http://www.w3.org/2000/svg">
<path d="M21.6137 3.57881C22.2022 2.91101 22.1084 1.91913 21.4001 1.36426C20.6919 0.809396 19.6399 0.897782 19.0514 1.56558L12 9.54484L4.94859 1.56558C4.3601 0.897782 3.30812 0.809396 2.59985 1.36426C1.89159 1.91913 1.79785 2.91101 2.38633 3.57881L9.82833 12L2.38633 20.4212C1.79785 21.089 1.89159 22.0809 2.59985 22.6357C3.30812 23.1906 4.3601 23.1022 4.94859 22.4344L12 14.4552L19.0514 22.4344C19.6399 23.1022 20.6919 23.1906 21.4001 22.6357C22.1084 22.0809 22.2022 21.089 21.6137 20.4212L14.1717 12L21.6137 3.57881Z" fill="black"/>
</svg>
