<svg width="24" height="24" viewBox="0 0 24 24" fill="none" xmlns="http://www.w3.org/2000/svg">
<path d="M21.75 20.5H2.25C1.005 20.5 0 19.495 0 18.25V4.75C0 3.505 1.005 2.5 2.25 2.5H21.75C22.995 2.5 24 3.505 24 4.75V18.25C24 19.495 22.995 20.5 21.75 20.5ZM2.25 4C1.83 4 1.5 4.33 1.5 4.75V18.25C1.5 18.67 1.83 19 2.25 19H21.75C22.17 19 22.5 18.67 22.5 18.25V4.75C22.5 4.33 22.17 4 21.75 4H2.25Z" fill="#6B6B6B"/>
<path d="M12.0001 14.4399C10.9501 14.4399 9.99013 14.0199 9.27013 13.2549L1.39513 4.88493C1.11013 4.58493 1.12513 4.10493 1.42513 3.81993C1.72513 3.53493 2.20513 3.54993 2.49013 3.84993L10.3651 12.2199C11.2201 13.1349 12.7801 13.1349 13.6351 12.2199L21.5101 3.86493C21.7951 3.56493 22.2751 3.54993 22.5751 3.83493C22.8751 4.11993 22.8901 4.59993 22.6051 4.89993L14.7301 13.2699C14.0101 14.0349 13.0501 14.4549 12.0001 14.4549V14.4399Z" fill="#6B6B6B"/>
</svg>
