<svg width="24" height="24" viewBox="0 0 24 24" fill="none" xmlns="http://www.w3.org/2000/svg">
<path d="M11.9997 4.4812C11.2442 4.4812 10.5056 4.70524 9.87741 5.12499C9.24922 5.54473 8.7596 6.14134 8.47047 6.83935C8.18134 7.53736 8.10569 8.30544 8.25309 9.04645C8.40049 9.78745 8.7643 10.4681 9.29854 11.0023C9.83278 11.5366 10.5134 11.9004 11.2544 12.0478C11.9955 12.1952 12.7635 12.1195 13.4615 11.8304C14.1596 11.5413 14.7562 11.0517 15.1759 10.4235C15.5956 9.79528 15.8197 9.05673 15.8197 8.3012C15.8197 7.28807 15.4172 6.31644 14.7008 5.60005C13.9844 4.88366 13.0128 4.4812 11.9997 4.4812V4.4812ZM11.9997 10.7879C11.5079 10.7879 11.0271 10.642 10.6182 10.3688C10.2092 10.0956 9.89052 9.70719 9.70231 9.25281C9.5141 8.79843 9.46485 8.29844 9.5608 7.81608C9.65675 7.33371 9.89358 6.89063 10.2414 6.54286C10.5891 6.1951 11.0322 5.95826 11.5146 5.86232C11.9969 5.76637 12.4969 5.81561 12.9513 6.00382C13.4057 6.19203 13.794 6.51075 14.0673 6.91968C14.3405 7.32861 14.4864 7.80938 14.4864 8.3012C14.4846 8.95955 14.2218 9.59033 13.7557 10.0552C13.2895 10.5201 12.658 10.7812 11.9997 10.7812V10.7879Z" fill="#6B6B6B"/>
<path d="M11.9965 7.29447e-10C9.77639 0.00191703 7.6472 0.912019 6.07399 2.53153C4.50078 4.15104 3.6114 6.34835 3.6001 8.64354C3.6001 12.0847 5.46756 14.9659 6.83608 17.066L7.08554 17.4492C8.44714 19.4893 9.90781 21.4568 11.462 23.3442L12.0037 24L12.5454 23.3442C14.0993 21.4567 15.56 19.4892 16.9218 17.4492L17.1712 17.0586C18.5326 14.9586 20.4001 12.0847 20.4001 8.64354C20.3888 6.34707 19.4984 4.14865 17.9237 2.52893C16.3489 0.909213 14.2179 -2.97374e-05 11.9965 7.29447e-10V7.29447e-10ZM15.9809 16.2112L15.7243 16.6018C14.4984 18.5029 12.8732 20.6325 11.9965 21.6862C11.1555 20.6325 9.49471 18.5029 8.26874 16.6018L8.01927 16.2112C6.75767 14.2659 5.02564 11.6058 5.02564 8.61406C5.02564 7.66767 5.20595 6.73055 5.55627 5.8562C5.90659 4.98185 6.42006 4.1874 7.06737 3.5182C7.71467 2.84901 8.48314 2.31817 9.32889 1.956C10.1746 1.59384 11.0811 1.40743 11.9965 1.40743C12.912 1.40743 13.8184 1.59384 14.6642 1.956C15.5099 2.31817 16.2784 2.84901 16.9257 3.5182C17.573 4.1874 18.0865 4.98185 18.4368 5.8562C18.7871 6.73055 18.9674 7.66767 18.9674 8.61406C18.9674 11.6352 17.2425 14.2954 15.9809 16.2112V16.2112Z" fill="#6B6B6B"/>
</svg>
