<svg width="24" height="24" viewBox="0 0 24 24" fill="none" xmlns="http://www.w3.org/2000/svg">
<path d="M22.08 16.4256C21.7518 15.4504 21.165 14.5825 20.3822 13.9147C19.5994 13.2469 18.65 12.8041 17.6352 12.6336C17.3581 12.5862 17.0732 12.6209 16.8156 12.7335C16.558 12.8461 16.339 13.0316 16.1856 13.2672L14.976 15.0048C14.9129 15.0964 14.8214 15.1649 14.7156 15.1995C14.6098 15.2342 14.4956 15.2333 14.3904 15.1968C13.1368 14.6995 11.9702 14.0061 10.9344 13.1424C9.8008 12.1922 8.84513 11.048 8.11203 9.76319C8.07893 9.70907 8.05689 9.64893 8.04718 9.58624C8.03748 9.52354 8.04029 9.45955 8.05547 9.39795C8.07064 9.33636 8.09788 9.27838 8.1356 9.22737C8.17332 9.17637 8.22078 9.13335 8.27523 9.10079L9.84003 8.05439C10.1013 7.88019 10.2993 7.62637 10.4048 7.33063C10.5103 7.03489 10.5176 6.71301 10.4256 6.41279C10.1339 5.4236 9.68674 4.4871 9.10083 3.63839C8.5171 2.78777 7.80458 2.03314 6.98883 1.40159C6.8159 1.27024 6.61601 1.17886 6.40353 1.13404C6.19105 1.08922 5.97127 1.09207 5.76003 1.14239C5.38765 1.2498 5.02481 1.38787 4.67523 1.55519C2.98193 2.47088 1.71651 4.01558 1.15203 5.85599C1.0561 6.14586 1.0561 6.45892 1.15203 6.74879C2.3637 10.5561 4.52043 13.9943 7.42083 16.7424C9.99127 19.1699 13.0709 20.9933 16.4352 22.08C16.5746 22.1257 16.7205 22.1483 16.8672 22.1472C17.0234 22.1485 17.1788 22.1258 17.328 22.08C19.1632 21.5156 20.7039 20.2541 21.6192 18.5664C21.8216 18.1567 21.9762 17.725 22.08 17.28C22.1689 17.0021 22.1689 16.7035 22.08 16.4256ZM20.8032 18.096C19.9917 19.5644 18.6318 20.6516 17.0208 21.12C16.9238 21.1491 16.8203 21.1491 16.7232 21.12C13.5004 20.0931 10.5482 18.3579 8.08323 16.0416C5.30065 13.3993 3.23026 10.0973 2.06403 6.44159C2.03037 6.34525 2.03037 6.24034 2.06403 6.14399C2.54156 4.55517 3.6241 3.21752 5.07843 2.41919C5.38524 2.27021 5.70706 2.15436 6.03843 2.07359H6.13443C6.24599 2.07202 6.35461 2.10936 6.44163 2.17919C7.18132 2.74492 7.82899 3.42173 8.36163 4.18559C8.8757 4.96376 9.26142 5.81946 9.50403 6.71999C9.53886 6.82478 9.53797 6.93816 9.50149 7.04239C9.46501 7.14661 9.395 7.2358 9.30243 7.29599L7.73763 8.29439C7.4393 8.50279 7.22831 8.8139 7.14506 9.16816C7.06181 9.52242 7.11215 9.89493 7.28643 10.2144C8.80214 12.866 11.1706 14.9266 14.0064 16.0608C14.316 16.1811 14.6575 16.1914 14.9738 16.0901C15.2901 15.9887 15.562 15.7818 15.744 15.504L16.9056 13.7664C16.9568 13.6859 17.0305 13.6221 17.1174 13.5829C17.2044 13.5436 17.301 13.5307 17.3952 13.5456C18.2486 13.688 19.0468 14.0611 19.7034 14.6246C20.3599 15.1881 20.8498 15.9205 21.12 16.7424C21.1436 16.8337 21.1436 16.9295 21.12 17.0208C21.0385 17.3916 20.9162 17.7522 20.7552 18.096H20.8032Z" fill="white"/>
</svg>
