<svg width="24" height="24" viewBox="0 0 24 24" fill="none" xmlns="http://www.w3.org/2000/svg">
<path d="M4 16C1.76 16 0 14.24 0 12C0 9.76 1.76 8 4 8C6.24 8 8 9.76 8 12C8 14.24 6.24 16 4 16ZM4 9.6C2.64 9.6 1.6 10.64 1.6 12C1.6 13.36 2.64 14.4 4 14.4C5.36 14.4 6.4 13.36 6.4 12C6.4 10.64 5.36 9.6 4 9.6ZM20 8C17.76 8 16 6.24 16 4C16 1.76 17.76 0 20 0C22.24 0 24 1.76 24 4C24 6.24 22.24 8 20 8ZM20 1.6C18.64 1.6 17.6 2.64 17.6 4C17.6 5.36 18.64 6.4 20 6.4C21.36 6.4 22.4 5.36 22.4 4C22.4 2.64 21.36 1.6 20 1.6ZM20 24C17.76 24 16 22.24 16 20C16 17.76 17.76 16 20 16C22.24 16 24 17.76 24 20C24 22.24 22.24 24 20 24ZM20 17.6C18.64 17.6 17.6 18.64 17.6 20C17.6 21.36 18.64 22.4 20 22.4C21.36 22.4 22.4 21.36 22.4 20C22.4 18.64 21.36 17.6 20 17.6Z" fill="#6B6B6B"/>
<path d="M7.20526 12.708L17.5093 17.86L16.7933 19.2904L6.48926 14.1384L7.20526 12.708ZM16.7941 4.70801L17.5093 6.14001L7.20526 11.2904L6.49006 9.85841L16.7941 4.70801Z" fill="#6B6B6B"/>
</svg>
