<svg width="24" height="24" viewBox="0 0 24 24" fill="none" xmlns="http://www.w3.org/2000/svg">
<path d="M21.2935 2.91409C18.3405 4.13713 5.67861 9.38185 2.18013 10.8113C-0.16611 11.7269 1.20741 12.5854 1.20741 12.5854C1.20741 12.5854 3.21021 13.272 4.92717 13.7871C6.64389 14.3021 7.55949 13.7299 7.55949 13.7299L15.6283 8.29345C18.4896 6.34777 17.8029 7.95001 17.1161 8.63689C15.6283 10.1249 13.1676 12.4709 11.1074 14.3595C10.1918 15.1606 10.6495 15.8472 11.0503 16.1907C12.538 17.4497 16.6013 20.0249 16.83 20.1965C18.0389 21.0523 20.4168 22.2843 20.7785 19.6815L22.2091 10.6971C22.667 7.66417 23.1247 4.86001 23.1818 4.05889C23.3537 2.11297 21.2935 2.91409 21.2935 2.91409Z" fill="#1B92D1"/>
</svg>
